<svg xmlns="http://www.w3.org/2000/svg" viewBox="0 0 76.31 75"><defs><style>.cls-1{fill:#e9b00a;}</style></defs><title>Asset 1y</title><g id="Layer_2" data-name="Layer 2"><g id="Layer_1-2" data-name="Layer 1"><path id="path3702" class="cls-1" d="M.39,73.5c-1.92-5,3.66-47.83,7.54-57.82C8.54,14.14,9,10,9,6.43V0H66.87l.4,7.25A84.31,84.31,0,0,0,69.74,22c3.1,11.24,5.13,25,5.89,39.75L76.31,75H42.53l-1.76-6c-1-3.3-2.16-6-2.65-6s-1.68,2.7-2.67,6l-1.8,6H17.31C3.73,75,.87,74.75.39,73.5ZM32.82,59.2C35.91,49.75,36,48.8,36,32.7V16H13.34L10.73,26.75C8.19,37.23,6,54.46,6,64.17,6,69,6,69,17.82,69H29.6ZM70,63.61c0-10-2-26-4.69-36.86L62.72,16H48v7.57c0,8.74-.78,10.68-5,12.41-2.92,1.21-3,1.51-3,7.34,0,4.14,1,9.2,3.21,15.88L46.45,69H70ZM43.46,31.43C44.58,30.3,45,27.89,45,22.93,45,16.2,45,16,42.53,16s-2.5.1-2.5,8.5C40,33.1,40.61,34.27,43.46,31.43ZM19.84,8.75C19.58,6,19.12,5.5,17,5.5S14.48,6,14.22,8.75c-.3,3-.12,3.25,2.81,3.25S20.14,11.79,19.84,8.75ZM28,8.5c0-3.07-.31-3.5-2.5-3.5S23,5.43,23,8.5s.31,3.5,2.5,3.5S28,11.57,28,8.5Zm8-.07c0-3.13-.28-3.53-2.25-3.25-1.73.25-2.32,1.08-2.56,3.57-.28,2.9,0,3.25,2.25,3.25S36,11.59,36,8.43Zm8.81.32C44.6,6.26,44,5.43,42.28,5.18,40.31,4.9,40,5.3,40,8.43S40.32,12,42.59,12,45.12,11.65,44.84,8.75ZM53,8.43c0-3.13-.28-3.53-2.25-3.25-1.73.25-2.32,1.08-2.56,3.57-.28,2.9,0,3.25,2.25,3.25S53,11.59,53,8.43Zm8.81.32C61.58,6,61.12,5.5,59,5.5S56.48,6,56.22,8.75c-.3,3-.12,3.25,2.81,3.25S62.14,11.79,61.84,8.75Z"/></g></g></svg>