<svg xmlns="http://www.w3.org/2000/svg" viewBox="0 0 75.59 75"><defs><style>.cls-1{fill:#f67280;}</style></defs><title>Asset 8p</title><g id="Layer_2" data-name="Layer 2"><g id="Layer_1-2" data-name="Layer 1"><path id="path3702" class="cls-1" d="M12.68,67.55c0-7.45,0-7.45-6.25-7.75L.18,59.5,0,35.7c-.1-13.09.23-25.24.73-27A15.28,15.28,0,0,1,4.68,2.75C7.71,0,7.71,0,37.8,0S67.88,0,71.19,3.31c4.32,4.32,4.66,7,4.29,34.19l-.3,22-6.25.3c-6.25.3-6.25.3-6.25,7.75V75h-50Zm23.06-12.8c.11-26.86-.17-36.25-1.11-37.2-.6-.59-2.17.24-4.25,2.25-3.29,3.2-3.29,3.2-6.94-.55-3.05-3.14-3.7-4.56-4-8.75-.31-5-.31-5-4.55-5.31-3.43-.25-4.71.17-6.75,2.21C5.7,9.89,5.68,10,5.68,28S5.68,46,10.18,46s4.5,0,4.5-12.5c0-11.83.11-12.5,2-12.5s2,.67,2,24V69h17l.06-14.25ZM56.68,45c0-23.33.06-24,2-24s2,.67,2,12.5c0,12.5,0,12.5,4.5,12.5s4.5,0,4.5-18,0-18.06-2.51-20.55c-2-2-3.32-2.46-6.75-2.21-4.24.31-4.24.31-4.55,5.31-.25,4.19-.9,5.61-3.95,8.75-3.65,3.75-3.65,3.75-6.86.64-1.76-1.71-3.7-2.81-4.29-2.44-.74.45-1.09,8.88-1.09,26.11V69h17ZM42.11,60.25c.38-2.6,3.57-2.89,3.57-.32C45.68,61.3,45,62,43.77,62S42,61.4,42.11,60.25Zm.24-6.92A1.87,1.87,0,0,1,43.68,50a1.77,1.77,0,0,1,2,2A1.87,1.87,0,0,1,42.35,53.33Zm-.42-9.58c.63-1.89,3.75-2.16,3.75-.32,0,.92-.85,1.57-2.08,1.57s-1.91-.52-1.67-1.25Zm.67-7c-.82-2.7-.5-3.75,1.17-3.75a1.76,1.76,0,0,1,1.91,2c0,1.11-.67,2-1.5,2A3,3,0,0,1,42.6,36.75Zm-.23-8.4A1.88,1.88,0,0,1,43.75,25c1.4,0,2,.54,1.75,1.67-.35,1.84-2.06,2.76-3.13,1.68ZM14.68,52.12c0-2.15-3.26-3.34-6.72-2.48a2.72,2.72,0,0,0-2.28,2.47c0,1.57.75,1.89,4.5,1.89S14.68,53.68,14.68,52.12Zm55-.12c0-1.7-.67-2-4.5-2s-4.5.3-4.5,2,.67,2,4.5,2S69.68,53.7,69.68,52Zm-17-42.76c0-5-1.89-5.47-3.14-.82a13.39,13.39,0,0,1-2.44,4.67c-1.4,1.55-1.47,2.14-.41,3.42s1.54,1.32,3.64-.65c1.78-1.67,2.35-3.28,2.35-6.62Zm-23.46,6.7c.36-.59-.09-1.89-1-2.9a13.16,13.16,0,0,1-2.4-4.62c-1.23-4.58-3.14-4.17-3.14.67,0,5.77,4.37,10.35,6.54,6.85ZM44,10.84c1.54-1.65,2.63-3.53,2.42-4.17C45.9,5.15,30.77,4.52,29.33,6s2,6,5.45,7.78c3.15,1.61,5.77.79,9.21-2.89Z"/></g></g></svg>