<svg xmlns="http://www.w3.org/2000/svg" viewBox="0 0 75.93 75"><defs><style>.cls-1{fill:#e9b00a;}</style></defs><title>Asset 9y</title><g id="Layer_2" data-name="Layer 2"><g id="Layer_1-2" data-name="Layer 1"><path id="path3702" class="cls-1" d="M12.93,67.55c0-7.45,0-7.45-6.25-7.75L.43,59.5l-.31-21C-.29,11.23.16,7.57,4.43,3.3,7.73,0,7.73,0,37.75,0s30,0,33.07,2.56A14.94,14.94,0,0,1,74.9,8.81c.56,2,1,14.33,1,27.44V60h-6.5c-6.5,0-6.5,0-6.5,7.5V75h-50Zm44-1c0-2.5,0-2.5-19-2.5s-19,0-19,2.5,0,2.5,19,2.5S56.93,69,56.93,66.5Zm0-25.5c0-19.33.07-20,2-20s2,.67,2,12.5c0,12.5,0,12.5,4.5,12.5s4.5,0,4.5-18,0-18.06-2.51-20.55c-2-2-3.32-2.46-6.75-2.21-4.24.31-4.24.31-4.55,5.31-.25,4.19-.9,5.61-3.95,8.75-3.64,3.75-3.64,3.75-6.86.64-1.76-1.71-3.7-2.81-4.29-2.44s-1.09,4.39-1.09,10.11c0,8.84-.13,9.44-2,9.44s-2-.55-1.87-9.07c.2-11.18-.75-12.62-5.38-8.13-3.3,3.2-3.3,3.2-6.95-.55-3.05-3.14-3.7-4.56-4-8.75-.31-5-.31-5-4.55-5.31-3.43-.25-4.71.17-6.75,2.21C6,9.89,5.93,10,5.93,28S5.93,46,10.43,46s4.5,0,4.5-12.5c0-11.83.11-12.5,2-12.5s2,.67,2,20V61h38Zm-15-6a1.77,1.77,0,0,1,2-2,1.77,1.77,0,0,1,2,2,1.77,1.77,0,0,1-2,2A1.77,1.77,0,0,1,41.93,35Zm.53-6.95c-.88-1.42.25-3.05,2.1-3.05.88,0,1.38.7,1.19,1.67C45.36,28.68,43.37,29.52,42.46,28.05ZM14.93,52c0-1.7-.67-2-4.5-2s-4.5.3-4.5,2,.67,2,4.5,2S14.93,53.7,14.93,52Zm55,0c0-1.7-.67-2-4.5-2s-4.5.3-4.5,2,.67,2,4.5,2S69.93,53.7,69.93,52ZM29.47,15.94c.36-.59-.09-1.89-1-2.9a13.16,13.16,0,0,1-2.4-4.62c-1.23-4.58-3.14-4.17-3.14.67C22.93,14.86,27.3,19.44,29.47,15.94Zm21.63-.59c1.25-1.13,1.83-3.07,1.83-6.09,0-5-1.89-5.5-3.14-.84A13.16,13.16,0,0,1,47.39,13c-3,3.33.31,5.38,3.71,2.31Zm-6.86-4.51c1.54-1.65,2.63-3.53,2.42-4.17C46.16,5.15,31,4.52,29.58,6s2,6,5.45,7.78C38.18,15.34,40.8,14.52,44.24,10.84Z"/></g></g></svg>