<svg xmlns="http://www.w3.org/2000/svg" viewBox="0 0 53.93 74.32"><defs><style>.cls-1{fill:#e9b00a;}</style></defs><title>Asset 3y</title><g id="Layer_2" data-name="Layer 2"><g id="Layer_1-2" data-name="Layer 1"><path id="path3702" class="cls-1" d="M35.67,73.56c-4.52-1.6-5.16-2.11-13.61-10.89-3.65-3.78-8.66-7.91-11.13-9.18C.87,48.34-2.45,40.58,1.82,32.22,3.67,28.59,3.93,26.35,3.93,14V0h29V33.21l9.94,10.23c5.46,5.62,10.24,11.45,10.62,13C56.21,67.21,45.87,77.18,35.67,73.56Zm10.51-7.67a10.22,10.22,0,0,0,1.75-5.6c0-3-1.19-4.71-9.48-13.27C33.24,41.64,28.51,36,28,34.55s-1-6.7-1-11.62V14h-17l0,6.75A37.57,37.57,0,0,1,8.28,31.5c-3.74,9.57-2.81,13.32,4.05,16.35C14.84,49,20.47,53.5,25.57,58.51c4.87,4.8,9.76,9.11,10.86,9.58,3,1.27,7.76.19,9.75-2.2ZM26.93,7.5C27.07,5.42,24,5,18.43,5,15,5,9.93,5,9.93,7.5S10,10,18.43,10,26.76,10,26.93,7.5Z"/></g></g></svg>