<svg xmlns="http://www.w3.org/2000/svg" viewBox="0 0 75.91 75"><defs><style>.cls-1{fill:#f67280;}</style></defs><title>Asset 5p</title><g id="Layer_2" data-name="Layer 2"><g id="Layer_1-2" data-name="Layer 1"><path id="path3702" class="cls-1" d="M12.91,67.55c0-7.45,0-7.45-6.25-7.75L.41,59.5l-.3-22C-.26,10.29.08,7.63,4.4,3.31,7.71,0,7.71,0,37.73,0s30,0,33.07,2.56a14.82,14.82,0,0,1,4.07,6.25c.57,2,1,14.33,1,27.44V60h-6.5c-6.5,0-6.5,0-6.5,7.5V75h-50Zm44-1c0-2.5,0-2.5-19-2.5s-19,0-19,2.5,0,2.5,19,2.5S56.91,69,56.91,66.5Zm0-25.5c0-19.33.07-20,2-20s2,.67,2,12.5c0,12.5,0,12.5,4.5,12.5s4.5,0,4.5-18,0-18.06-2.5-20.54c-2.27-2.27-3.15-2.47-9.69-2.2-7.08.29-7.2.34-8,3.33a15.77,15.77,0,0,1-3.88,6c-2.56,2.45-3.93,3-8,3s-5.4-.51-8-3a15.77,15.77,0,0,1-3.88-6c-.77-3-.89-3-8-3.33-6.54-.27-7.42-.07-9.69,2.2C5.93,9.89,5.91,10,5.91,28S5.91,46,10.41,46s4.5,0,4.5-12.5c0-11.83.11-12.5,2-12.5s2,.67,2,20V61h38ZM14.73,51.75c-.18-1.24-.66-2.14-1.07-2A24.65,24.65,0,0,1,9.41,50c-2.83,0-3.5.38-3.5,2s.67,2,4.57,2C14.65,54,15,53.8,14.73,51.75Zm55,0c-.2-1.42-1-2.2-2.07-2.13s-2.88.19-4.25.26c-1.79.08-2.5.69-2.5,2.12,0,1.71.67,2,4.57,2C69.65,54,70,53.8,69.73,51.75ZM44.22,10.84c1.54-1.65,2.63-3.53,2.42-4.17C46.13,5.15,31,4.52,29.56,6s2,6,5.45,7.78c3.15,1.61,5.77.79,9.21-2.89Z"/></g></g></svg>