<svg xmlns="http://www.w3.org/2000/svg" viewBox="0 0 76.25 75"><defs><style>.cls-1{fill:#06578a;}</style></defs><title>Asset 4b</title><g id="Layer_2" data-name="Layer 2"><g id="Layer_1-2" data-name="Layer 1"><path id="path3702" class="cls-1" d="M.44,74C-1,71.67,1.23,46,4.07,31.65,5.68,23.49,7.44,16,8,15s1-4.79,1-8.4V0H67V6.57c0,3.61.44,7.39,1,8.4,2.34,4.37,6.94,32,7.61,45.78L76.25,75H42.47L40.6,69c-1-3.29-2.22-6-2.64-6s-1.58,2.7-2.57,6l-1.8,6H17.34C7.1,75,.85,74.61.44,74ZM33.51,57c2.18-6.6,4.2-12,4.5-12s2.31,5.4,4.46,12l3.91,12H70V63.61a184.2,184.2,0,0,0-4.62-36.86C62.74,16,62.74,16,57.51,16c-4,0-5.67.49-7,2-1.21,1.34-3.08,2-5.64,2-3.72,0-3.79.06-2.67,2.53.9,2,.87,2.79-.14,3.75-.8.75-1.45.84-1.69.22-.89-2.26-2.54-3.94-2.95-3-1.44,3.26-2.34,4-3.54,2.77-.93-.93-1-1.81-.07-3.74,1.11-2.43,1-2.53-2.19-2.53a11.06,11.06,0,0,1-5.88-2c-1.77-1.39-4.06-2-7.49-2-4.94,0-4.94,0-7.54,10.75C8.13,37.23,6,54.46,6,64.17,6,69,6,69,17.76,69H29.55ZM55,62.5c0-1.08,1.11-1.5,4-1.5s4,.42,4,1.5S61.86,64,59,64,55,63.58,55,62.5ZM34.47,14c-1.91-2.11-6-2.69-7-1-1.16,1.87.61,3,4.71,3S36.25,16,34.47,14Zm14,0c0-2.41-4.83-2.4-7,0-1.91,2.12-1.91,2.12,2.55,1.8,3.16-.23,4.47-.76,4.47-1.82ZM19.78,8.75C19.52,6,19.06,5.5,17,5.5S14.42,6,14.16,8.75C13.86,11.79,14,12,17,12S20.07,11.79,19.78,8.75Zm8.16-2C28,5.54,27.19,5,25.47,5c-2.2,0-2.5.43-2.5,3.55,0,3.54,0,3.54,2.47,1.75C26.79,9.31,27.92,7.71,27.94,6.75ZM53,8.5C53,5.7,52.58,5,51,5,48,5,47.55,6.93,50,9.57A14.88,14.88,0,0,0,52.64,12C52.82,12,53,10.42,53,8.5Zm8.81.25C61.52,6,61.06,5.5,59,5.5S56.42,6,56.16,8.75C55.86,11.79,56,12,59,12S62.07,11.79,61.78,8.75ZM36,7.43c0-2.07-.42-2.51-2.17-2.25-4.11.6-2.93,3.53,1.92,4.76A6.26,6.26,0,0,0,36,7.43Zm7.46,1.22C45.58,7.08,44.71,5,41.91,5,40.51,5,40,5.69,40,7.5,40,10.33,40.77,10.6,43.43,8.65Z"/></g></g></svg>