<svg xmlns="http://www.w3.org/2000/svg" viewBox="0 0 76.28 75"><defs><style>.cls-1{fill:#f67280;}</style></defs><title>Asset 2p</title><g id="Layer_2" data-name="Layer 2"><g id="Layer_1-2" data-name="Layer 1"><path id="path3702" class="cls-1" d="M.36,73.51c-1.93-5,4.28-52.24,7.72-58.67.51-.94.92-4.66.92-8.27V0H66.84l.43,7.25A84.56,84.56,0,0,0,69.81,22c3,10.62,5,24.38,5.79,39.75L76.28,75H42.5l-1.76-6c-1-3.3-2.16-6-2.63-6s-1.71,2.7-2.74,6L33.5,75H17.22C3.7,75,.84,74.75.36,73.51ZM33.54,57c2.18-6.6,4.21-12,4.51-12s2.3,5.4,4.45,12l3.91,12H58.2C70,69,70,69,70,63.75c0-7.42-1.89-26.56-3-30.89C66,29.1,64.18,28,58.86,28c-3.45,0-8.7-4.94-9.49-8.92C48.75,16,48.75,16,38,16s-10.75,0-11.37,3.09c-.94,4.72-5.66,8.52-11.53,9.3-3.45.46-5.15,1.19-5.52,2.39-1,3.31-2.53,16-3.2,27.05L5.7,69H29.58ZM19.06,24c1.66-.89,4.94-5.81,4.94-7.42,0-.3-2.42-.55-5.37-.55-5.07,0-5.41.16-5.93,2.75a33.81,33.81,0,0,1-1.24,4.5C10.91,24.69,11.35,25,14,25A13.06,13.06,0,0,0,19.06,24Zm45.48-.72a33.94,33.94,0,0,1-1.23-4.5c-.53-2.59-.87-2.75-5.93-2.75-3,0-5.38.25-5.38.55C52,18,55.21,23,56.75,23.92a12.79,12.79,0,0,0,5.11,1C64.65,25,65.1,24.71,64.54,23.25ZM19.81,8.75C19.55,6,19.09,5.5,17,5.5S14.45,6,14.19,8.75c-.3,3-.11,3.25,2.81,3.25S20.11,11.79,19.81,8.75ZM28,8.5C28,5.43,27.69,5,25.5,5S23,5.43,23,8.5s.31,3.5,2.5,3.5S28,11.57,28,8.5Zm8-.07c0-3.13-.28-3.53-2.25-3.25-1.72.25-2.32,1.08-2.56,3.57-.28,2.9,0,3.25,2.25,3.25S36,11.59,36,8.43Zm8.81.32c-.24-2.49-.83-3.32-2.56-3.57C40.28,4.9,40,5.3,40,8.43S40.29,12,42.56,12,45.09,11.65,44.81,8.75ZM53,8.43c0-3.13-.28-3.53-2.25-3.25-1.72.25-2.32,1.08-2.56,3.57-.28,2.9,0,3.25,2.25,3.25S53,11.59,53,8.43Zm8.81.32C61.55,6,61.09,5.5,59,5.5S56.45,6,56.19,8.75c-.3,3-.11,3.25,2.81,3.25S62.11,11.79,61.81,8.75Z"/></g></g></svg>