<svg xmlns="http://www.w3.org/2000/svg" viewBox="0 0 65.98 75.01"><defs><style>.cls-1{fill:#e9b00a;}</style></defs><title>Asset 7y</title><g id="Layer_2" data-name="Layer 2"><g id="Layer_1-2" data-name="Layer 1"><path id="path3702" class="cls-1" d="M2.36,68.76c1.3-3.44,3.1-8,4-10.12C8.42,53.73,8.5,54,5,54c-3,0-3,0-3-22.55C2-1.39.61,0,33,0s31-1.4,31,31.45C64,54,64,54,60.88,54c-2.1,0-2.94.41-2.59,1.25C62,64.1,66,74.21,66,74.56S51.14,75,33,75H0ZM57,67.84c0-1.59-5-14-6.23-15.58C50,51.35,45.17,51,32.92,51s-17,.33-17.62,1.25C13.84,54.53,9,66.43,9,67.73c0,1,5.18,1.28,24,1.28,17.68,0,24-.31,24-1.17ZM14.76,34.26C15,23.39,15.31,21,16.51,21S18,22.63,18,29v8H48V29c0-6.38.3-8,1.47-8S51,23.39,51.2,34.26c.28,13.25.28,13.25,3.62,13.25s3.33,0,3.23-19.5C58,9.49,57.85,8.42,55.86,6.76,54.49,5.62,52.06,5,48.89,5c-4.56,0-5,.21-6.26,3.25-2.08,4.92-5.19,7.2-9.83,7.2-3.27,0-4.56-.6-6.92-3.24C24.29,10.44,23,8,23,6.87c0-1.95-.43-2.07-5.91-1.67-9.35.67-9.09,0-9.09,23,0,20,0,20,3.25,19.63s3.25-.31,3.53-13.56ZM23,44.51c0-3.07-.31-3.5-2.5-3.5s-2.5.43-2.5,3.5.31,3.5,2.5,3.5S23,47.58,23,44.51Zm8,0c0-3.07-.31-3.5-2.5-3.5s-2.5.43-2.5,3.5.31,3.5,2.5,3.5S31,47.58,31,44.51Zm9,0c0-3.07-.31-3.5-2.5-3.5s-2.5.43-2.5,3.5.31,3.5,2.5,3.5S40,47.58,40,44.51Zm8,0c0-3.07-.31-3.5-2.5-3.5s-2.5.43-2.5,3.5.31,3.5,2.5,3.5S48,47.58,48,44.51ZM36.58,11.24c1.61-1.07,3.44-4.86,2.7-5.6C38.93,5.29,36.1,5,33,5c-6.54,0-7.34.47-5.81,3.38S29.94,12,33,12a8,8,0,0,0,3.6-.74Z"/></g></g></svg>