<svg xmlns="http://www.w3.org/2000/svg" viewBox="0 0 76.06 75"><defs><style>.cls-1{fill:#f67280;}</style></defs><title>Asset 6p</title><g id="Layer_2" data-name="Layer 2"><g id="Layer_1-2" data-name="Layer 1"><path id="path3702" class="cls-1" d="M13.06,49.5V24H.26L.13,12,0,0H76.06V24h-13V75h-50Zm44,17c0-2.5,0-2.5-19-2.5s-19,0-19,2.5,0,2.5,19,2.5S57.06,69,57.06,66.5Zm0-26.43c0-20.93,0-20.93,2.25-21.25,2.07-.29,2.25-.84,2.25-6.82,0-6.5,0-6.5-5.43-6.5-5.22,0-5.47.12-6.23,3a15.74,15.74,0,0,1-3.87,6c-2.59,2.48-3.92,3-8.11,3-4.51,0-5.35-.37-8.43-3.74-2-2.22-3.43-4.77-3.43-6.3,0-2.49-.16-2.55-5.75-2.26-5.75.3-5.75.3-5.75,6.8,0,6,.18,6.53,2.25,6.82,2.25.32,2.25.32,2.25,21.25V61h38Zm-46-28.14c0-6.76-.09-7.06-2.25-6.75-2,.28-2.28,1-2.55,5.7C5.88,17.46,6.41,19,9,19,10.88,19,11.06,18.37,11.06,11.93Zm58.5.07c0-6-.18-6.53-2.25-6.82s-2.25,0-2.25,6.82.1,7.13,2.25,6.82S69.56,18,69.56,12Zm-25-1.13C46,9.15,47,7.24,46.77,6.62S43.34,5.5,38.06,5.5s-8.47.41-8.7,1.12.81,2.53,2.25,4.25C33.71,13.37,35,14,38.06,14S42.42,13.37,44.52,10.87Z"/></g></g></svg>