<svg xmlns="http://www.w3.org/2000/svg" viewBox="0 0 525.45 570.4"><defs><style>.cls-1{fill:#fff;}</style></defs><title>logo</title><g id="Layer_2" data-name="Layer 2"><g id="Layer_1-2" data-name="Layer 1"><g id="kQ7Oix.tif"><path class="cls-1" d="M525.45,570.4H0V0H525.45ZM263.13,228.47v0c-20.57,0-41.15-.13-61.72.09a75.44,75.44,0,0,0-14.74,2.08,8.31,8.31,0,0,0-6.61,7.06,90.87,90.87,0,0,0-1.37,12.61c-.21,8.65-.17,17.31,0,26,.16,10.72.5,21.44.78,32.16a62.27,62.27,0,0,0,3.65,19.75c3.63,10,10.15,16.92,20.54,20.14,12.5,3.87,25.41,5.29,38.33,5.81,19.29.78,38.59.45,57.79-2.1a211.08,211.08,0,0,0,27.88-5.16c7.79-2.11,13.41-6.42,17-13.72a61,61,0,0,0,6.18-27c.13-17.07-.32-34.13-.51-51.2-.05-3.91.1-7.83-.06-11.74-.4-9.78-4.3-13.05-13.46-14a205.14,205.14,0,0,0-21.2-.68C298.12,228.41,280.63,228.47,263.13,228.47ZM400.92,376c-4.19-4.21-8-8.11-12-11.88-.33-.32-1.71,0-2.27.48-1.88,1.51-3.6,3.21-5.39,4.83a174.24,174.24,0,0,1-37.57,26.22c-14.46,7.44-29.45,13.61-45.57,16.5-9,1.6-18,3.69-27,4.18-18.46,1-36.86.3-55-4.09a197.1,197.1,0,0,1-37.45-12.83,183.87,183.87,0,0,1-50.69-35.07c-1.81-1.76-1.66-2.8.06-4.42a65.45,65.45,0,0,0,7-7.4c4-5.17,2.95-10.46-2.5-13.47a21,21,0,0,0-4.86-1.91c-11.83-3-23.65-6-35.54-8.74-8.78-2-14.55,2.9-12.78,11.89.75,3.82,1.72,7.61,2.65,11.39,2.15,8.71,4.22,17.44,6.55,26.1,2.47,9.17,8.93,11.27,16.29,5.34a44.92,44.92,0,0,0,5.83-5.79c1.67-1.94,2.84-1.8,4.63-.07a207.43,207.43,0,0,0,51,36.38A188,188,0,0,0,208.36,429a297.4,297.4,0,0,0,29.46,4.82c15.6,2,31.19,1.28,46.77-.77a205.25,205.25,0,0,0,30.65-6.5A202.87,202.87,0,0,0,351.51,412a188.39,188.39,0,0,0,35.73-23.68C391.85,384.37,396.25,380.2,400.92,376ZM59.66,283.52c6.21-1.57,11.68-2.9,17.1-4.39.43-.12.91-1.31.81-1.9-.55-3.19-1.43-6.32-1.91-9.52-1.31-8.61-3.08-17.21-3.55-25.87a180.77,180.77,0,0,1,3.53-47.63,189.42,189.42,0,0,1,11.53-36.78,180.9,180.9,0,0,1,26.42-43.33,198.3,198.3,0,0,1,30.1-29.47A159,159,0,0,1,177.93,63.8c9.2-4,18.75-7.22,28.18-10.65,2.74-1,3.28-.49,4.06,2.21.91,3.11,1.77,6.25,2.9,9.27,2.32,6.22,8,8.05,13.46,4.36a27.64,27.64,0,0,0,4.15-3.57q8.58-8.73,17-17.58,4.56-4.8,8.88-9.81A8.88,8.88,0,0,0,259,30.7c-.81-5.1-4.45-7.38-8.87-8.71-7.56-2.26-15.16-4.42-22.76-6.56C222.29,14,217.22,12.2,212,11.37c-6.73-1.06-11.61,2.43-10.25,10.8.51,3.1,1.36,6.16,2.16,9.21.58,2.2.13,3.31-2.3,4.13-8.81,3-17.69,5.84-26.21,9.52a192.52,192.52,0,0,0-47.52,29.11c-14.33,12-27.1,25.34-37.6,40.82-15.35,22.59-26.6,47-32,73.87-1.69,8.37-3.47,16.82-4,25.31-.75,12.43-1.3,24.94.58,37.37C56.47,262.07,58,272.64,59.66,283.52ZM443.28,230.8c-.81,9.78-1.27,18.66-2.37,27.47-.76,6.17-2.33,12.23-3.64,18.32-.45,2.06-1.2,3.18-4,2.28a49.38,49.38,0,0,0-12.17-2.29,6.86,6.86,0,0,0-7.58,6.36,20.87,20.87,0,0,0,.35,6.7c2.06,7.95,4.37,15.84,6.64,23.74,1.28,4.48,2.49,9,4,13.36,2.82,7.95,10.5,9.77,16.66,4.08,2.93-2.72,5.88-5.43,8.72-8.23,6.76-6.66,13.64-13.19,20.11-20.11,5.13-5.48,3.39-11.3-2.92-14.09-3.16-1.39-6.65-2-10-3.05-2.74-.83-3-1.55-2.51-4.1,1.76-8.53,4-17,4.94-25.64a305.72,305.72,0,0,0,1.19-30.88,159.82,159.82,0,0,0-4.14-35.61,217.73,217.73,0,0,0-16-46.37A203.37,203.37,0,0,0,402,87.93a189.83,189.83,0,0,0-56.82-40.11c-10.26-4.67-21.06-8.16-31.62-12.17-1.91-.73-3.14-.57-3.69,1.92-1,4.37-2.35,8.65-3.58,13-.41,1.45.08,2,1.58,2.37A174.39,174.39,0,0,1,341.92,66.3a172.87,172.87,0,0,1,36.27,24.17c18.86,16.63,34.3,35.93,45.43,58.63a182.4,182.4,0,0,1,16.64,51.27C441.92,210.68,442.36,221.18,443.28,230.8ZM131.12,242.94c.95-1.14,1.52-1.91,2.17-2.61,5.1-5.52,11.9-8.61,18.4-11.77q28.84-14,58.2-26.93c17.34-7.67,34.94-14.73,52.45-22a5.41,5.41,0,0,1,3.09-.36,37.16,37.16,0,0,1,6.18,1.92c12.24,5,24.58,9.78,36.65,15.16q26.89,12,53.44,24.72c9.59,4.61,18.83,9.94,28.19,15,3.23,1.75,5.68,4.37,8.27,7.75-1.59.11-2.54.25-3.49.25-9.83,0-19.66.05-29.5,0-2.06,0-2.87.63-2.73,2.71a46,46,0,0,1,0,6c-.14,2.13.79,2.73,2.79,2.71,10.49-.1,21,.18,31.46-.3,3.93-.18,7.92-1.7,11.63-3.24a5.79,5.79,0,0,0,3.11-8.31,31.16,31.16,0,0,0-5.81-7.39c-7.94-7.19-17.16-12.59-26.47-17.75-20.25-11.23-41.31-20.78-62.54-30-14.73-6.39-29.41-12.87-44.16-19.19a3.67,3.67,0,0,1-2.54-4c.09-4.08.07-8.16,0-12.24,0-8.82-.6-9.53-9.22-11.63-11.27-2.75-17-11.38-14.82-22.76,1.34-6.82,5-12.31,11.87-14.57,7.46-2.45,14.11-.11,19.84,4.87,3.37,2.93,4.07,7.11,4.43,11.33.27,3.14.57,6.29,1,9.41.19,1.39.65,2.69,2.42,3.07,3.8.83,7.91-1.13,9-4.79a16.27,16.27,0,0,0,.79-6.14,33.25,33.25,0,0,0-9.1-20.34c-4.11-4.34-9.42-6.73-15.1-8.33a27.59,27.59,0,0,0-14-.24c-8.23,2-14.5,7-19,14.1-5.53,8.79-6.7,18.24-2.41,27.84,3.34,7.46,9.28,12.49,16.74,15.67,3,1.29,5.41,3,5.62,6.58.16,2.66.21,5.33.46,8,.21,2.16-.57,3.24-2.66,4.07-11.58,4.62-23.25,9.08-34.59,14.25q-27.81,12.68-55.22,26.22A278.73,278.73,0,0,0,128,232c-5,3.51-9.91,7.1-13.09,12.49-1.92,3.27-1.26,6.47,2.28,7.85a36.06,36.06,0,0,0,11.51,2.79c12,.4,24,.21,36,.3,1.67,0,2.19-.76,2.15-2.3-.06-2.16-.1-4.33,0-6.49.1-2-.62-2.59-2.59-2.61-9.91-.13-19.82-.38-29.73-.62A33.24,33.24,0,0,1,131.12,242.94Z"/><path d="M263.13,228.47c17.5,0,35-.06,52.48,0a205.14,205.14,0,0,1,21.2.68c9.16,1,13.06,4.26,13.46,14,.16,3.91,0,7.83.06,11.74.19,17.07.64,34.13.51,51.2a61,61,0,0,1-6.18,27c-3.63,7.3-9.25,11.61-17,13.72A211.08,211.08,0,0,1,299.74,352c-19.2,2.55-38.5,2.88-57.79,2.1-12.92-.52-25.83-1.94-38.33-5.81-10.39-3.22-16.91-10.12-20.54-20.14a62.27,62.27,0,0,1-3.65-19.75c-.28-10.72-.62-21.44-.78-32.16-.13-8.65-.17-17.31,0-26a90.87,90.87,0,0,1,1.37-12.61,8.31,8.31,0,0,1,6.61-7.06,75.44,75.44,0,0,1,14.74-2.08c20.57-.22,41.15-.09,61.72-.09Zm-5.74,99.36c2.26.64,4.1,1.51,6,1.63,17.5,1.12,30.83-6.43,39.6-21.07,8-13.3,10.91-28.25,10.65-43.77-.06-3.66-.56-4.13-4.2-4.26-7.29-.28-14.41.92-21.47,2.49-8.72,1.94-17.28,4.57-24.69,9.69-8.95,6.17-14.65,14.88-17.7,25.26a29.21,29.21,0,0,0-.18,16.24c.66,2.38,1.47,2.73,3.21,1.36,11.08-8.65,22.15-17.33,33.25-25.94,3-2.33,6.13-4.47,9.2-6.7l.56.58Zm-14.79-7.06.65-.47c-.23-.76-.4-1.55-.7-2.29-3.19-7.83-2.93-15.83-.63-23.71,2.93-10,8.05-18.77,16.57-25.22,1.73-1.32,1.56-2.19-.51-2.88-10.86-3.61-21.92-6.14-33.47-5.83-3.23.09-4,.92-4.11,4.27a87.9,87.9,0,0,0,2.28,20.5c2,9.7,5,19,10.81,27.12A28.4,28.4,0,0,0,242.6,320.77Z"/><path d="M400.92,376c-4.67,4.22-9.07,8.39-13.68,12.32A188.39,188.39,0,0,1,351.51,412a202.87,202.87,0,0,1-36.27,14.61,205.25,205.25,0,0,1-30.65,6.5c-15.58,2.05-31.17,2.77-46.77.77A297.4,297.4,0,0,1,208.36,429a188,188,0,0,1-42.05-15.42,207.43,207.43,0,0,1-51-36.38c-1.79-1.73-3-1.87-4.63.07a44.92,44.92,0,0,1-5.83,5.79C97.45,389,91,386.93,88.52,377.76c-2.33-8.66-4.4-17.39-6.55-26.1-.93-3.78-1.9-7.57-2.65-11.39-1.77-9,4-13.89,12.78-11.89,11.89,2.72,23.71,5.77,35.54,8.74A21,21,0,0,1,132.5,339c5.45,3,6.5,8.3,2.5,13.47a65.45,65.45,0,0,1-7,7.4c-1.72,1.62-1.87,2.66-.06,4.42a183.87,183.87,0,0,0,50.69,35.07,197.1,197.1,0,0,0,37.45,12.83c18.18,4.39,36.58,5.08,55,4.09,9.06-.49,18.06-2.58,27-4.18,16.12-2.89,31.11-9.06,45.57-16.5a174.24,174.24,0,0,0,37.57-26.22c1.79-1.62,3.51-3.32,5.39-4.83.56-.45,1.94-.8,2.27-.48C392.9,367.87,396.73,371.77,400.92,376Z"/><path d="M59.66,283.52c-1.62-10.88-3.19-21.45-4.79-32-1.88-12.43-1.33-24.94-.58-37.37.52-8.49,2.3-16.94,4-25.31,5.41-26.88,16.66-51.28,32-73.87,10.5-15.48,23.27-28.85,37.6-40.82A192.52,192.52,0,0,1,175.41,45c8.52-3.68,17.4-6.55,26.21-9.52,2.43-.82,2.88-1.93,2.3-4.13-.8-3.05-1.65-6.11-2.16-9.21-1.36-8.37,3.52-11.86,10.25-10.8,5.21.83,10.28,2.61,15.38,4.06,7.6,2.14,15.2,4.3,22.76,6.56,4.42,1.33,8.06,3.61,8.87,8.71A8.88,8.88,0,0,1,256.59,38q-4.3,5-8.88,9.81-8.44,8.86-17,17.58A27.64,27.64,0,0,1,226.53,69c-5.43,3.69-11.14,1.86-13.46-4.36-1.13-3-2-6.16-2.9-9.27-.78-2.7-1.32-3.2-4.06-2.21-9.43,3.43-19,6.64-28.18,10.65a159,159,0,0,0-34.24,20.83,198.3,198.3,0,0,0-30.1,29.47,180.9,180.9,0,0,0-26.42,43.33,189.42,189.42,0,0,0-11.53,36.78,180.77,180.77,0,0,0-3.53,47.63c.47,8.66,2.24,17.26,3.55,25.87.48,3.2,1.36,6.33,1.91,9.52.1.59-.38,1.78-.81,1.9C71.34,280.62,65.87,282,59.66,283.52Z"/><path d="M443.28,230.8c-.92-9.62-1.36-20.12-3-30.43a182.4,182.4,0,0,0-16.64-51.27c-11.13-22.7-26.57-42-45.43-58.63A172.87,172.87,0,0,0,341.92,66.3a174.39,174.39,0,0,0-34.06-13.41c-1.5-.4-2-.92-1.58-2.37,1.23-4.3,2.62-8.58,3.58-13,.55-2.49,1.78-2.65,3.69-1.92,10.56,4,21.36,7.5,31.62,12.17A189.83,189.83,0,0,1,402,87.93a203.37,203.37,0,0,1,38.69,54.81,217.73,217.73,0,0,1,16,46.37,159.82,159.82,0,0,1,4.14,35.61,305.72,305.72,0,0,1-1.19,30.88c-.9,8.63-3.18,17.11-4.94,25.64-.53,2.55-.23,3.27,2.51,4.1,3.33,1,6.82,1.66,10,3.05,6.31,2.79,8.05,8.61,2.92,14.09-6.47,6.92-13.35,13.45-20.11,20.11-2.84,2.8-5.79,5.51-8.72,8.23-6.16,5.69-13.84,3.87-16.66-4.08-1.55-4.38-2.76-8.88-4-13.36-2.27-7.9-4.58-15.79-6.64-23.74a20.87,20.87,0,0,1-.35-6.7,6.86,6.86,0,0,1,7.58-6.36,49.38,49.38,0,0,1,12.17,2.29c2.78.9,3.53-.22,4-2.28,1.31-6.09,2.88-12.15,3.64-18.32C442,249.46,442.47,240.58,443.28,230.8Z"/><path d="M131.12,242.94a33.24,33.24,0,0,0,3.4.45c9.91.24,19.82.49,29.73.62,2,0,2.69.66,2.59,2.61-.12,2.16-.08,4.33,0,6.49,0,1.54-.48,2.31-2.15,2.3-12-.09-24,.1-36-.3a36.06,36.06,0,0,1-11.51-2.79c-3.54-1.38-4.2-4.58-2.28-7.85,3.18-5.39,8.13-9,13.09-12.49a278.73,278.73,0,0,1,38.07-22.35q27.4-13.5,55.22-26.22c11.34-5.17,23-9.63,34.59-14.25,2.09-.83,2.87-1.91,2.66-4.07-.25-2.65-.3-5.32-.46-8-.21-3.61-2.58-5.29-5.62-6.58-7.46-3.18-13.4-8.21-16.74-15.67-4.29-9.6-3.12-19.05,2.41-27.84,4.46-7.08,10.73-12.11,19-14.1a27.59,27.59,0,0,1,14,.24c5.68,1.6,11,4,15.1,8.33a33.25,33.25,0,0,1,9.1,20.34,16.27,16.27,0,0,1-.79,6.14c-1.12,3.66-5.23,5.62-9,4.79-1.77-.38-2.23-1.68-2.42-3.07-.43-3.12-.73-6.27-1-9.41-.36-4.22-1.06-8.4-4.43-11.33-5.73-5-12.38-7.32-19.84-4.87-6.89,2.26-10.53,7.75-11.87,14.57-2.22,11.38,3.55,20,14.82,22.76,8.62,2.1,9.19,2.81,9.22,11.63,0,4.08,0,8.16,0,12.24a3.67,3.67,0,0,0,2.54,4c14.75,6.32,29.43,12.8,44.16,19.19,21.23,9.2,42.29,18.75,62.54,30,9.31,5.16,18.53,10.56,26.47,17.75a31.16,31.16,0,0,1,5.81,7.39,5.79,5.79,0,0,1-3.11,8.31c-3.71,1.54-7.7,3.06-11.63,3.24-10.47.48-21,.2-31.46.3-2,0-2.93-.58-2.79-2.71a46,46,0,0,0,0-6c-.14-2.08.67-2.73,2.73-2.71,9.84.08,19.67,0,29.5,0,.95,0,1.9-.14,3.49-.25-2.59-3.38-5-6-8.27-7.75-9.36-5.06-18.6-10.39-28.19-15q-26.54-12.74-53.44-24.72c-12.07-5.38-24.41-10.17-36.65-15.16a37.16,37.16,0,0,0-6.18-1.92,5.41,5.41,0,0,0-3.09.36c-17.51,7.28-35.11,14.34-52.45,22q-29.32,13-58.2,26.93c-6.5,3.16-13.3,6.25-18.4,11.77C132.64,241,132.07,241.8,131.12,242.94Z"/><path class="cls-1" d="M257.39,327.83l34.22-44.49-.56-.58c-3.07,2.23-6.2,4.37-9.2,6.7-11.1,8.61-22.17,17.29-33.25,25.94-1.74,1.37-2.55,1-3.21-1.36a29.21,29.21,0,0,1,.18-16.24c3.05-10.38,8.75-19.09,17.7-25.26,7.41-5.12,16-7.75,24.69-9.69,7.06-1.57,14.18-2.77,21.47-2.49,3.64.13,4.14.6,4.2,4.26.26,15.52-2.68,30.47-10.65,43.77-8.77,14.64-22.1,22.19-39.6,21.07C261.49,329.34,259.65,328.47,257.39,327.83Z"/><path class="cls-1" d="M242.6,320.77a28.4,28.4,0,0,1-9.11-8.51c-5.78-8.15-8.79-17.42-10.81-27.12a87.9,87.9,0,0,1-2.28-20.5c.1-3.35.88-4.18,4.11-4.27,11.55-.31,22.61,2.22,33.47,5.83,2.07.69,2.24,1.56.51,2.88-8.52,6.45-13.64,15.18-16.57,25.22-2.3,7.88-2.56,15.88.63,23.71.3.74.47,1.53.7,2.29Z"/></g></g></g></svg>